Title: Bang-ga?Bang-ga! (2010)
Year: 2010
Country: South Korea
Language: Korean
Film Genre: Comedy
Subtitles: English(srt/idx,sub), Korean(smi/idx,sub)
Director: Yook Sang-hyo
Cast: Kim In-kwon, Kim Jeong-tae, Sin Hyeon-bin, Khan Mohammad Asaduzzman, Nazarudin, Peter Holman
Info Link: http://www.hancinema.net/korean_movie_Delighted_i__Delighted_e_.php


PLOT or SYNOPSIS
Also known as "Heâ™s on Duty"
He has the natural Southeast Asian feel. The greatest unemployed man pretends to be a Bhutan person in order to get a job.


General
Complete name : Banga.Banga!.2010.DVDRip.x264.AC3-BAUM.mkv
Format : Matroska
File size : 1.45 GiB
Duration : 1h 50mn
Overall bit rate : 1 879 Kbps
Encoded date : UTC 2011-01-15 09:55:16
Writing application : mkvmerge v4.0.0 ('The Stars were mine') built on Jun 6 2010 16:18:42
Writing library : libebml v1.0.0 + libmatroska v1.0.0

Video #0
ID : 1
Format : AVC
Format/Info : Advanced Video Codec
Format profile : High@L3.0
Format settings, CABAC : Yes
Format settings, ReFrames : 4 frames
Muxing mode : Container profile=Unknown@3.0
Codec ID : V_MPEG4/ISO/AVC
Duration : 1h 50mn
Bit rate : 1 429 Kbps
Width : 720 pixels
Height : 304 pixels
Display aspect ratio : 2.35:1
Frame rate : 23.976 fps
Color space : YUV
Chroma subsampling : 4:2:0
Bit depth : 8 bits
Scan type : Progressive
Bits/(Pixel*Frame) : 0.272
Stream size : 1.08 GiB (74%)
Writing library : x264 core 98 r1649 c54c47d

Audio #1
ID : 2
Format : AC-3
Format/Info : Audio Coding 3
Mode extension : CM (complete main)
Codec ID : A_AC3
Duration : 1h 50mn
Bit rate mode : Constant
Bit rate : 448 Kbps
Channel(s) : 6 channels
Channel positions : Front: L C R, Side: L R, LFE
Sampling rate : 48.0 KHz
Bit depth : 16 bits
Stream size : 355 MiB (24%)
